<?xml version="1.0" encoding="UTF-8"?>
<svg xmlns="http://www.w3.org/2000/svg" xmlns:xlink="http://www.w3.org/1999/xlink" width="702.393pt" height="663.237pt" viewBox="0 0 702.393 663.237" version="1.2">
<defs>
<clipPath id="clip1">
  <path d="M 142 0 L 560 0 L 560 240 L 142 240 Z M 142 0 "/>
</clipPath>
<clipPath id="clip2">
  <path d="M -231.246094 513.730469 L -231.246094 208.230469 L 350.894531 -125.671875 L 933.035156 208.230469 L 933.035156 513.730469 L 350.894531 847.632812 Z M -231.246094 513.730469 "/>
</clipPath>
<clipPath id="clip3">
  <path d="M 189 3 L 513 3 L 513 189 L 189 189 Z M 189 3 "/>
</clipPath>
<clipPath id="clip4">
  <path d="M -231.246094 513.730469 L -231.246094 208.230469 L 350.894531 -125.671875 L 933.035156 208.230469 L 933.035156 513.730469 L 350.894531 847.632812 Z M -231.246094 513.730469 "/>
</clipPath>
<clipPath id="clip5">
  <path d="M 0.101562 280 L 296 280 L 296 662.476562 L 0.101562 662.476562 Z M 0.101562 280 "/>
</clipPath>
<clipPath id="clip6">
  <path d="M -231.246094 513.730469 L -231.246094 208.230469 L 350.894531 -125.671875 L 933.035156 208.230469 L 933.035156 513.730469 L 350.894531 847.632812 Z M -231.246094 513.730469 "/>
</clipPath>
<clipPath id="clip7">
  <path d="M 13 336 L 242 336 L 242 631 L 13 631 Z M 13 336 "/>
</clipPath>
<clipPath id="clip8">
  <path d="M -231.246094 513.730469 L -231.246094 208.230469 L 350.894531 -125.671875 L 933.035156 208.230469 L 933.035156 513.730469 L 350.894531 847.632812 Z M -231.246094 513.730469 "/>
</clipPath>
<clipPath id="clip9">
  <path d="M 406 280 L 701.6875 280 L 701.6875 662.476562 L 406 662.476562 Z M 406 280 "/>
</clipPath>
<clipPath id="clip10">
  <path d="M -231.246094 513.730469 L -231.246094 208.230469 L 350.894531 -125.671875 L 933.035156 208.230469 L 933.035156 513.730469 L 350.894531 847.632812 Z M -231.246094 513.730469 "/>
</clipPath>
<clipPath id="clip11">
  <path d="M 460 336 L 689 336 L 689 631 L 460 631 Z M 460 336 "/>
</clipPath>
<clipPath id="clip12">
  <path d="M -231.246094 513.730469 L -231.246094 208.230469 L 350.894531 -125.671875 L 933.035156 208.230469 L 933.035156 513.730469 L 350.894531 847.632812 Z M -231.246094 513.730469 "/>
</clipPath>
<clipPath id="clip13">
  <path d="M 0.101562 0 L 701.6875 0 L 701.6875 662.476562 L 0.101562 662.476562 Z M 0.101562 0 "/>
</clipPath>
<clipPath id="clip14">
  <path d="M -231.246094 513.730469 L -231.246094 208.230469 L 350.894531 -125.671875 L 933.035156 208.230469 L 933.035156 513.730469 L 350.894531 847.632812 Z M -231.246094 513.730469 "/>
</clipPath>
<clipPath id="clip15">
  <path d="M 0.101562 76 L 701.6875 76 L 701.6875 662.476562 L 0.101562 662.476562 Z M 0.101562 76 "/>
</clipPath>
<clipPath id="clip16">
  <path d="M -231.246094 513.730469 L -231.246094 208.230469 L 350.894531 -125.671875 L 933.035156 208.230469 L 933.035156 513.730469 L 350.894531 847.632812 Z M -231.246094 513.730469 "/>
</clipPath>
</defs>
<g id="surface1">
<g clip-path="url(#clip1)" clip-rule="nonzero">
<g clip-path="url(#clip2)" clip-rule="nonzero">
<path style=" stroke:none;fill-rule:nonzero;fill:rgb(22.349548%,59.220886%,30.979919%);fill-opacity:1;" d="M 203.265625 204.414062 L 194.199219 198.875 L 185.765625 193.015625 L 177.996094 186.859375 L 170.921875 180.433594 L 164.574219 173.765625 L 158.972656 166.878906 L 154.148438 159.800781 L 150.113281 152.5625 L 146.890625 145.195312 L 144.484375 137.722656 L 142.914062 130.175781 L 142.175781 122.589844 L 142.28125 114.992188 L 143.226562 107.410156 L 145.007812 99.882812 L 147.617188 92.433594 L 151.046875 85.09375 L 155.28125 77.890625 L 160.300781 70.859375 L 166.089844 64.023438 L 172.625 57.414062 L 179.875 51.054688 L 187.8125 44.972656 L 196.410156 39.191406 L 205.628906 33.730469 L 215.429688 28.621094 L 225.777344 23.875 L 236.632812 19.519531 L 247.941406 15.5625 L 259.667969 12.027344 L 271.765625 8.925781 L 284.175781 6.269531 L 296.859375 4.070312 L 309.757812 2.339844 L 322.820312 1.078125 L 336 0.296875 L 349.238281 -0.00390625 L 362.480469 0.175781 L 375.679688 0.839844 L 388.777344 1.980469 L 401.722656 3.59375 L 414.460938 5.675781 L 426.945312 8.21875 L 439.125 11.210938 L 450.949219 14.640625 L 462.367188 18.492188 L 473.339844 22.75 L 483.816406 27.398438 L 493.761719 32.421875 L 503.128906 37.792969 L 511.882812 43.496094 L 519.988281 49.507812 L 527.414062 55.800781 L 534.128906 62.351562 L 540.105469 69.132812 L 545.320312 76.117188 L 549.753906 83.277344 L 553.386719 90.585938 L 556.203125 98.011719 L 558.191406 105.523438 L 559.347656 113.09375 L 559.660156 120.691406 L 559.136719 128.28125 L 557.773438 135.839844 L 555.574219 143.335938 L 552.554688 150.734375 L 548.71875 158.007812 L 544.089844 165.125 L 538.683594 172.0625 L 532.519531 178.789062 L 525.625 185.277344 L 518.027344 191.5 L 509.753906 197.4375 L 500.84375 203.058594 L 491.328125 208.347656 L 481.246094 213.277344 L 470.640625 217.832031 L 459.554688 221.992188 L 448.027344 225.738281 L 436.113281 229.058594 L 423.851562 231.9375 L 411.296875 234.367188 L 398.503906 236.332031 L 385.515625 237.828125 L 372.386719 238.851562 L 359.171875 239.394531 L 345.925781 239.453125 L 332.695312 239.03125 L 319.542969 238.128906 L 306.515625 236.75 L 293.664062 234.902344 L 281.046875 232.585938 L 268.707031 229.820312 L 256.703125 226.609375 L 245.074219 222.964844 L 233.871094 218.910156 L 223.144531 214.453125 L 212.925781 209.613281 L 203.265625 204.414062 "/>
</g>
</g>
<g clip-path="url(#clip3)" clip-rule="nonzero">
<g clip-path="url(#clip4)" clip-rule="nonzero">
<path style=" stroke:none;fill-rule:nonzero;fill:rgb(100%,100%,100%);fill-opacity:1;" d="M 236.871094 161.285156 L 229.867188 157.003906 L 223.351562 152.480469 L 217.351562 147.726562 L 211.886719 142.761719 L 206.984375 137.613281 L 202.660156 132.292969 L 198.933594 126.828125 L 195.816406 121.238281 L 193.324219 115.542969 L 191.46875 109.773438 L 190.253906 103.945312 L 189.6875 98.085938 L 189.765625 92.214844 L 190.496094 86.363281 L 191.875 80.546875 L 193.890625 74.792969 L 196.539062 69.125 L 199.808594 63.5625 L 203.6875 58.132812 L 208.15625 52.851562 L 213.203125 47.746094 L 218.800781 42.835938 L 224.933594 38.136719 L 231.574219 33.667969 L 238.695312 29.453125 L 246.265625 25.507812 L 254.257812 21.84375 L 262.640625 18.476562 L 271.378906 15.421875 L 280.433594 12.691406 L 289.777344 10.292969 L 299.363281 8.242188 L 309.15625 6.546875 L 319.121094 5.207031 L 329.210938 4.234375 L 339.390625 3.628906 L 349.613281 3.398438 L 359.84375 3.535156 L 370.035156 4.046875 L 380.152344 4.929688 L 390.152344 6.175781 L 399.992188 7.785156 L 409.636719 9.75 L 419.042969 12.058594 L 428.171875 14.707031 L 436.992188 17.683594 L 445.46875 20.972656 L 453.5625 24.5625 L 461.242188 28.441406 L 468.476562 32.589844 L 475.238281 36.996094 L 481.5 41.636719 L 487.234375 46.5 L 492.421875 51.558594 L 497.035156 56.796875 L 501.066406 62.191406 L 504.488281 67.722656 L 507.292969 73.367188 L 509.46875 79.101562 L 511.003906 84.902344 L 511.898438 90.75 L 512.140625 96.617188 L 511.734375 102.484375 L 510.679688 108.320312 L 508.984375 114.109375 L 506.652344 119.824219 L 503.691406 125.441406 L 500.113281 130.941406 L 495.9375 136.296875 L 491.175781 141.492188 L 485.851562 146.503906 L 479.980469 151.3125 L 473.59375 155.894531 L 466.710938 160.238281 L 459.359375 164.324219 L 451.574219 168.132812 L 443.382812 171.648438 L 434.820312 174.859375 L 425.917969 177.753906 L 416.714844 180.320312 L 407.246094 182.542969 L 397.550781 184.417969 L 387.664062 185.9375 L 377.632812 187.09375 L 367.492188 187.882812 L 357.289062 188.300781 L 347.054688 188.347656 L 336.839844 188.023438 L 326.679688 187.324219 L 316.617188 186.261719 L 306.691406 184.832031 L 296.945312 183.046875 L 287.414062 180.90625 L 278.140625 178.425781 L 269.160156 175.613281 L 260.507812 172.480469 L 252.222656 169.039062 L 244.332031 165.300781 L 236.871094 161.285156 "/>
</g>
</g>
<g clip-path="url(#clip5)" clip-rule="nonzero">
<g clip-path="url(#clip6)" clip-rule="nonzero">
<path style=" stroke:none;fill-rule:nonzero;fill:rgb(79.219055%,23.529053%,19.60907%);fill-opacity:1;" d="M 147.703125 300.652344 L 157.066406 306.367188 L 166.390625 312.746094 L 175.640625 319.769531 L 184.777344 327.398438 L 193.765625 335.613281 L 202.570312 344.375 L 211.152344 353.648438 L 219.476562 363.394531 L 227.515625 373.578125 L 235.230469 384.160156 L 242.59375 395.089844 L 249.578125 406.332031 L 256.148438 417.835938 L 262.28125 429.554688 L 267.957031 441.445312 L 273.144531 453.457031 L 277.828125 465.539062 L 281.988281 477.648438 L 285.609375 489.734375 L 288.671875 501.75 L 291.167969 513.640625 L 293.085938 525.363281 L 294.417969 536.867188 L 295.160156 548.113281 L 295.308594 559.046875 L 294.863281 569.632812 L 293.828125 579.820312 L 292.199219 589.578125 L 289.992188 598.855469 L 287.210938 607.625 L 283.867188 615.84375 L 279.976562 623.480469 L 275.550781 630.511719 L 270.613281 636.898438 L 265.179688 642.621094 L 259.269531 647.65625 L 252.914062 651.984375 L 246.136719 655.582031 L 238.960938 658.441406 L 231.414062 660.550781 L 223.535156 661.898438 L 215.347656 662.476562 L 206.890625 662.289062 L 198.195312 661.335938 L 189.292969 659.617188 L 180.226562 657.140625 L 171.027344 653.917969 L 161.734375 649.964844 L 152.386719 645.289062 L 143.019531 639.917969 L 133.671875 633.867188 L 124.378906 627.164062 L 115.179688 619.832031 L 106.113281 611.90625 L 97.210938 603.414062 L 88.515625 594.394531 L 80.058594 584.878906 L 71.871094 574.90625 L 63.992188 564.519531 L 56.445312 553.757812 L 49.269531 542.667969 L 42.492188 531.289062 L 36.132812 519.671875 L 30.226562 507.859375 L 24.792969 495.902344 L 19.855469 483.847656 L 15.429688 471.746094 L 11.539062 459.644531 L 8.195312 447.585938 L 5.414062 435.628906 L 3.207031 423.816406 L 1.578125 412.195312 L 0.542969 400.816406 L 0.09375 389.71875 L 0.246094 378.953125 L 0.988281 368.5625 L 2.320312 358.585938 L 4.238281 349.0625 L 6.734375 340.035156 L 9.796875 331.539062 L 13.417969 323.605469 L 17.578125 316.265625 L 22.261719 309.554688 L 27.449219 303.496094 L 33.125 298.113281 L 39.257812 293.433594 L 45.828125 289.46875 L 52.8125 286.234375 L 60.175781 283.75 L 67.890625 282.023438 L 75.929688 281.058594 L 84.253906 280.859375 L 92.835938 281.433594 L 101.640625 282.769531 L 110.628906 284.867188 L 119.765625 287.71875 L 129.015625 291.308594 L 138.339844 295.625 L 147.703125 300.652344 "/>
</g>
</g>
<g clip-path="url(#clip7)" clip-rule="nonzero">
<g clip-path="url(#clip8)" clip-rule="nonzero">
<path style=" stroke:none;fill-rule:nonzero;fill:rgb(100%,100%,100%);fill-opacity:1;" d="M 127.109375 351.390625 L 134.34375 355.804688 L 141.546875 360.734375 L 148.691406 366.15625 L 155.746094 372.050781 L 162.691406 378.394531 L 169.488281 385.160156 L 176.117188 392.324219 L 182.546875 399.851562 L 188.757812 407.71875 L 194.714844 415.890625 L 200.402344 424.332031 L 205.796875 433.015625 L 210.871094 441.898438 L 215.609375 450.953125 L 219.992188 460.136719 L 224 469.414062 L 227.617188 478.746094 L 230.828125 488.101562 L 233.625 497.433594 L 235.992188 506.714844 L 237.917969 515.898438 L 239.402344 524.953125 L 240.429688 533.839844 L 241.003906 542.523438 L 241.117188 550.96875 L 240.773438 559.144531 L 239.972656 567.015625 L 238.714844 574.550781 L 237.011719 581.714844 L 234.863281 588.488281 L 232.28125 594.835938 L 229.273438 600.738281 L 225.855469 606.164062 L 222.042969 611.101562 L 217.847656 615.519531 L 213.285156 619.410156 L 208.375 622.75 L 203.136719 625.53125 L 197.59375 627.738281 L 191.769531 629.367188 L 185.683594 630.40625 L 179.359375 630.855469 L 172.824219 630.710938 L 166.109375 629.972656 L 159.234375 628.648438 L 152.230469 626.734375 L 145.125 624.246094 L 137.949219 621.191406 L 130.730469 617.582031 L 123.492188 613.429688 L 116.273438 608.757812 L 109.09375 603.578125 L 101.992188 597.917969 L 94.988281 591.796875 L 88.113281 585.238281 L 81.394531 578.269531 L 74.863281 570.921875 L 68.539062 563.21875 L 62.453125 555.195312 L 56.625 546.882812 L 51.085938 538.316406 L 45.847656 529.53125 L 40.9375 520.554688 L 36.375 511.433594 L 32.179688 502.199219 L 28.363281 492.886719 L 24.949219 483.539062 L 21.941406 474.191406 L 19.359375 464.878906 L 17.210938 455.644531 L 15.503906 446.519531 L 14.25 437.546875 L 13.445312 428.753906 L 13.101562 420.183594 L 13.21875 411.871094 L 13.789062 403.84375 L 14.820312 396.136719 L 16.300781 388.785156 L 18.230469 381.808594 L 20.597656 375.246094 L 23.390625 369.121094 L 26.605469 363.453125 L 30.222656 358.269531 L 34.230469 353.589844 L 38.613281 349.433594 L 43.351562 345.816406 L 48.425781 342.753906 L 53.820312 340.257812 L 59.507812 338.335938 L 65.464844 337.003906 L 71.671875 336.257812 L 78.105469 336.105469 L 84.734375 336.546875 L 91.53125 337.578125 L 98.472656 339.199219 L 105.53125 341.402344 L 112.675781 344.175781 L 119.878906 347.511719 L 127.109375 351.390625 "/>
</g>
</g>
<g clip-path="url(#clip9)" clip-rule="nonzero">
<g clip-path="url(#clip10)" clip-rule="nonzero">
<path style=" stroke:none;fill-rule:nonzero;fill:rgb(57.249451%,34.899902%,63.919067%);fill-opacity:1;" d="M 554.082031 300.652344 L 544.71875 306.367188 L 535.394531 312.746094 L 526.144531 319.769531 L 517.007812 327.398438 L 508.019531 335.613281 L 499.214844 344.375 L 490.632812 353.648438 L 482.308594 363.394531 L 474.269531 373.578125 L 466.554688 384.160156 L 459.191406 395.089844 L 452.210938 406.332031 L 445.636719 417.835938 L 439.503906 429.554688 L 433.828125 441.445312 L 428.640625 453.457031 L 423.957031 465.539062 L 419.796875 477.648438 L 416.179688 489.734375 L 413.113281 501.75 L 410.617188 513.640625 L 408.699219 525.363281 L 407.367188 536.867188 L 406.625 548.113281 L 406.476562 559.046875 L 406.921875 569.632812 L 407.960938 579.820312 L 409.585938 589.578125 L 411.792969 598.855469 L 414.574219 607.625 L 417.917969 615.84375 L 421.8125 623.480469 L 426.234375 630.511719 L 431.171875 636.898438 L 436.609375 642.621094 L 442.515625 647.65625 L 448.871094 651.984375 L 455.648438 655.582031 L 462.828125 658.441406 L 470.371094 660.550781 L 478.25 661.898438 L 486.4375 662.476562 L 494.894531 662.289062 L 503.589844 661.335938 L 512.492188 659.617188 L 521.558594 657.140625 L 530.757812 653.917969 L 540.050781 649.964844 L 549.398438 645.289062 L 558.765625 639.917969 L 568.117188 633.867188 L 577.40625 627.164062 L 586.605469 619.832031 L 595.671875 611.90625 L 604.574219 603.414062 L 613.269531 594.394531 L 621.730469 584.878906 L 629.914062 574.90625 L 637.796875 564.519531 L 645.339844 553.757812 L 652.515625 542.667969 L 659.292969 531.289062 L 665.652344 519.671875 L 671.558594 507.859375 L 676.992188 495.902344 L 681.929688 483.847656 L 686.355469 471.746094 L 690.246094 459.644531 L 693.589844 447.585938 L 696.371094 435.628906 L 698.578125 423.816406 L 700.207031 412.195312 L 701.246094 400.816406 L 701.691406 389.71875 L 701.542969 378.953125 L 700.800781 368.5625 L 699.464844 358.585938 L 697.546875 349.0625 L 695.050781 340.035156 L 691.988281 331.539062 L 688.367188 323.605469 L 684.207031 316.265625 L 679.523438 309.554688 L 674.335938 303.496094 L 668.660156 298.113281 L 662.527344 293.433594 L 655.957031 289.46875 L 648.976562 286.234375 L 641.609375 283.75 L 633.894531 282.023438 L 625.859375 281.058594 L 617.53125 280.859375 L 608.949219 281.433594 L 600.148438 282.769531 L 591.160156 284.867188 L 582.019531 287.71875 L 572.769531 291.308594 L 563.445312 295.625 L 554.082031 300.652344 "/>
</g>
</g>
<g clip-path="url(#clip11)" clip-rule="nonzero">
<g clip-path="url(#clip12)" clip-rule="nonzero">
<path style=" stroke:none;fill-rule:nonzero;fill:rgb(100%,100%,100%);fill-opacity:1;" d="M 574.675781 351.390625 L 567.441406 355.804688 L 560.242188 360.734375 L 553.097656 366.15625 L 546.039062 372.050781 L 539.097656 378.394531 L 532.296875 385.160156 L 525.667969 392.324219 L 519.238281 399.851562 L 513.03125 407.71875 L 507.070312 415.890625 L 501.382812 424.332031 L 495.988281 433.015625 L 490.914062 441.898438 L 486.175781 450.953125 L 481.792969 460.136719 L 477.785156 469.414062 L 474.167969 478.746094 L 470.957031 488.101562 L 468.160156 497.433594 L 465.792969 506.714844 L 463.867188 515.898438 L 462.382812 524.953125 L 461.355469 533.839844 L 460.78125 542.523438 L 460.667969 550.96875 L 461.011719 559.144531 L 461.8125 567.015625 L 463.070312 574.550781 L 464.773438 581.714844 L 466.921875 588.488281 L 469.503906 594.835938 L 472.511719 600.738281 L 475.929688 606.164062 L 479.742188 611.101562 L 483.941406 615.519531 L 488.503906 619.410156 L 493.410156 622.75 L 498.648438 625.53125 L 504.191406 627.738281 L 510.015625 629.367188 L 516.105469 630.40625 L 522.425781 630.855469 L 528.960938 630.710938 L 535.675781 629.972656 L 542.550781 628.648438 L 549.554688 626.734375 L 556.660156 624.246094 L 563.835938 621.191406 L 571.058594 617.582031 L 578.292969 613.429688 L 585.511719 608.757812 L 592.691406 603.578125 L 599.796875 597.917969 L 606.796875 591.796875 L 613.671875 585.238281 L 620.390625 578.269531 L 626.921875 570.921875 L 633.246094 563.21875 L 639.332031 555.195312 L 645.160156 546.882812 L 650.703125 538.316406 L 655.9375 529.53125 L 660.847656 520.554688 L 665.410156 511.433594 L 669.605469 502.199219 L 673.421875 492.886719 L 676.839844 483.539062 L 679.84375 474.191406 L 682.425781 464.878906 L 684.574219 455.644531 L 686.28125 446.519531 L 687.535156 437.546875 L 688.339844 428.753906 L 688.683594 420.183594 L 688.566406 411.871094 L 687.996094 403.84375 L 686.964844 396.136719 L 685.484375 388.785156 L 683.554688 381.808594 L 681.1875 375.246094 L 678.394531 369.121094 L 675.179688 363.453125 L 671.5625 358.269531 L 667.554688 353.589844 L 663.171875 349.433594 L 658.433594 345.816406 L 653.359375 342.753906 L 647.96875 340.257812 L 642.28125 338.335938 L 636.320312 337.003906 L 630.113281 336.257812 L 623.679688 336.105469 L 617.054688 336.546875 L 610.253906 337.578125 L 603.3125 339.199219 L 596.253906 341.402344 L 589.109375 344.175781 L 581.90625 347.511719 L 574.675781 351.390625 "/>
</g>
</g>
<g clip-path="url(#clip13)" clip-rule="nonzero">
<g clip-path="url(#clip14)" clip-rule="nonzero">
<path style="fill:none;stroke-width:29.8883;stroke-linecap:round;stroke-linejoin:miter;stroke:rgb(0%,0%,0%);stroke-opacity:0.5;stroke-dasharray:53.79903,41.84344;stroke-miterlimit:10;" d="M 0.00168386 305.8533 L -3.991186 303.526408 L -7.976234 301.129122 L -11.965192 298.661443 L -15.946329 296.119459 L -19.927467 293.507082 L -23.900782 290.824312 L -27.870187 288.071148 L -31.831771 285.251502 L -35.785533 282.361462 L -39.727563 279.40494 L -43.661771 276.381935 L -47.588158 273.296358 L -51.498902 270.140388 L -55.397913 266.921846 L -59.281282 263.640732 L -63.149007 260.297046 L -67.005001 256.886877 L -70.84144 253.421958 L -74.658326 249.894467 L -78.459569 246.308315 L -82.241259 242.659591 L -85.999484 238.960027 L -89.738155 235.197892 L -93.453361 231.384917 L -97.145103 227.517191 L -100.813381 223.594715 L -104.454284 219.617488 L -108.071722 215.589422 L -111.657874 211.510517 L -115.220561 207.384682 L -118.751963 203.208007 L -122.252079 198.984404 L -125.720909 194.717783 L -129.162363 190.400321 L -132.568621 186.039842 L -135.939682 181.640255 L -139.279457 177.19374 L -142.584036 172.708116 L -145.853418 168.183386 L -149.083692 163.619548 L -152.27877 159.016602 L -155.43474 154.37846 L -158.547692 149.705121 L -161.625448 145.000496 L -164.660185 140.260675 L -167.655815 135.489567 L -170.608426 130.687174 L -173.51802 125.853495 L -176.380684 120.996351 L -179.204241 116.107921 L -181.980869 111.196027 L -184.710568 106.260668 L -187.393339 101.301845 L -190.02918 96.319557 L -192.618092 91.321627 L -195.160076 86.300232 L -197.65122 81.259283 L -200.091524 76.202691 L -202.480988 71.134367 L -204.819613 66.046489 L -207.111309 60.95079 L -209.344344 55.839448 L -211.530449 50.720284 L -213.657894 45.589388 L -215.734499 40.450671 L -217.756354 35.308043 L -219.723458 30.157593 L -221.635811 25.007144 L -223.493415 19.848873 L -225.292357 14.694512 L -227.036549 9.536241 L -228.722079 4.381881 L -230.352859 -0.77248 L -231.921068 -5.922929 L -233.434526 -11.065557 L -234.885412 -16.204275 L -236.281547 -21.335171 L -237.615111 -26.454334 L -238.890013 -31.565676 L -240.106255 -36.665286 L -241.259924 -41.749253 L -242.354932 -46.821488 L -243.387369 -51.87808 L -244.357233 -56.919029 L -245.268436 -61.940424 L -246.117068 -66.942265 L -246.903127 -71.924553 L -247.626615 -76.887287 L -248.287531 -81.822645 L -248.885874 -86.73454 L -249.421646 -91.622969 L -249.894846 -96.484024 L -250.305474 -101.317703 L -250.653531 -106.120097 L -250.939015 -110.895115 L -251.161927 -115.634936 L -251.318357 -120.343472 L -251.412215 -125.020722 L -251.443501 -129.658864 " transform="matrix(0.998851,0,0,-0.998851,350.892849,369.673721)"/>
<path style="fill:none;stroke-width:29.8883;stroke-linecap:round;stroke-linejoin:miter;stroke:rgb(0%,0%,0%);stroke-opacity:0.5;stroke-dasharray:53.79903,41.84344;stroke-miterlimit:10;" d="M 0.00168386 305.8533 L 3.990643 303.526408 L 7.979601 301.129122 L 11.964649 298.661443 L 15.945786 296.119459 L 19.926924 293.507082 L 23.900239 290.824312 L 27.869644 288.071148 L 31.831228 285.251502 L 35.78499 282.361462 L 39.72702 279.40494 L 43.661228 276.381935 L 47.587615 273.296358 L 51.498359 270.140388 L 55.39737 266.921846 L 59.280739 263.640732 L 63.148464 260.297046 L 67.004458 256.886877 L 70.840897 253.421958 L 74.657783 249.894467 L 78.459026 246.308315 L 82.240716 242.659591 L 85.99894 238.960027 L 89.737612 235.197892 L 93.452818 231.384917 L 97.14456 227.517191 L 100.812838 223.594715 L 104.453741 219.617488 L 108.071179 215.589422 L 111.657331 211.510517 L 115.220018 207.384682 L 118.75142 203.208007 L 122.251536 198.984404 L 125.724276 194.717783 L 129.16182 190.400321 L 132.568078 186.039842 L 135.94305 181.640255 L 139.278914 177.19374 L 142.583493 172.708116 L 145.852875 168.183386 L 149.083149 163.619548 L 152.278227 159.016602 L 155.434197 154.37846 L 158.55106 149.705121 L 161.624905 145.000496 L 164.663552 140.260675 L 167.655271 135.489567 L 170.607883 130.687174 L 173.517476 125.853495 L 176.384052 120.996351 L 179.203698 116.107921 L 181.980326 111.196027 L 184.710025 106.260668 L 187.392796 101.301845 L 190.028637 96.319557 L 192.617549 91.321627 L 195.159533 86.300232 L 197.650677 81.259283 L 200.090981 76.202691 L 202.480445 71.134367 L 204.822981 66.046489 L 207.110766 60.95079 L 209.347711 55.839448 L 211.529906 50.720284 L 213.661262 45.589388 L 215.737867 40.450671 L 217.759721 35.308043 L 219.726825 30.157593 L 221.639179 25.007144 L 223.492872 19.848873 L 225.291814 14.694512 L 227.036006 9.536241 L 228.721536 4.381881 L 230.352316 -0.77248 L 231.920525 -5.922929 L 233.433983 -11.065557 L 234.888779 -16.204275 L 236.281004 -21.335171 L 237.614568 -26.454334 L 238.88947 -31.565676 L 240.105712 -36.665286 L 241.259381 -41.749253 L 242.354389 -46.821488 L 243.386826 -51.87808 L 244.35669 -56.919029 L 245.267893 -61.940424 L 246.116525 -66.942265 L 246.902584 -71.924553 L 247.626072 -76.887287 L 248.286988 -81.822645 L 248.885331 -86.73454 L 249.421103 -91.622969 L 249.894303 -96.484024 L 250.304931 -101.317703 L 250.652988 -106.120097 L 250.938472 -110.895115 L 251.161384 -115.634936 L 251.317814 -120.343472 L 251.415583 -125.020722 L 251.446869 -129.658864 " transform="matrix(0.998851,0,0,-0.998851,350.892849,369.673721)"/>
</g>
</g>
<g clip-path="url(#clip15)" clip-rule="nonzero">
<g clip-path="url(#clip16)" clip-rule="nonzero">
<path style="fill:none;stroke-width:29.8883;stroke-linecap:round;stroke-linejoin:miter;stroke:rgb(0%,0%,0%);stroke-opacity:0.5;stroke-dasharray:53.79903,41.84344;stroke-miterlimit:10;" d="M -251.443501 -129.658864 L -247.423256 -131.927095 L -243.34044 -134.16013 L -239.195051 -136.357968 L -234.991002 -138.516698 L -230.728291 -140.636322 L -226.406919 -142.712927 L -222.026886 -144.754335 L -217.592102 -146.756636 L -213.102568 -148.715918 L -208.558284 -150.636094 L -203.96316 -152.513251 L -199.313286 -154.347389 L -194.616482 -156.13851 L -189.87275 -157.890523 L -185.078178 -159.595608 L -180.236677 -161.257674 L -175.348248 -162.876722 L -170.42071 -164.448841 L -165.446244 -165.977942 L -160.432671 -167.460113 L -155.376079 -168.895356 L -150.28038 -170.287581 L -145.149484 -171.632877 L -139.97948 -172.931244 L -134.778191 -174.178771 L -129.537794 -175.38328 L -124.270023 -176.53695 L -118.967054 -177.64369 L -113.63671 -178.703502 L -108.27508 -179.712474 L -102.886075 -180.674517 L -97.473606 -181.58572 L -92.033761 -182.446084 L -86.574363 -183.259519 L -81.0915 -184.022114 L -75.589083 -184.73778 L -70.067113 -185.398695 L -64.525589 -186.012682 L -58.968422 -186.571919 L -53.395612 -187.084226 L -47.81107 -187.545694 L -42.214796 -187.956322 L -36.6107 -188.3122 L -30.990961 -188.621148 L -25.367311 -188.879257 L -19.73584 -189.082616 L -14.100458 -189.239046 L -8.461166 -189.340725 L -2.821873 -189.391565 L 2.82133 -189.391565 L 8.460623 -189.340725 L 14.099915 -189.239046 L 19.739208 -189.082616 L 25.366768 -188.879257 L 30.990418 -188.621148 L 36.610157 -188.3122 L 42.214253 -187.956322 L 47.814438 -187.545694 L 53.39898 -187.084226 L 58.967879 -186.571919 L 64.525046 -186.012682 L 70.06657 -185.398695 L 75.58854 -184.73778 L 81.090957 -184.022114 L 86.57382 -183.259519 L 92.037129 -182.446084 L 97.473063 -181.58572 L 102.885532 -180.674517 L 108.274537 -179.712474 L 113.636167 -178.703502 L 118.966511 -177.64369 L 124.26948 -176.53695 L 129.537251 -175.38328 L 134.777648 -174.178771 L 139.982848 -172.931244 L 145.148941 -171.632877 L 150.283747 -170.287581 L 155.375536 -168.895356 L 160.432128 -167.460113 L 165.445701 -165.977942 L 170.420167 -164.448841 L 175.351615 -162.876722 L 180.236134 -161.257674 L 185.077635 -159.595608 L 189.872207 -157.890523 L 194.615939 -156.13851 L 199.316653 -154.347389 L 203.962617 -152.513251 L 208.557741 -150.636094 L 213.102025 -148.715918 L 217.591559 -146.756636 L 222.026343 -144.754335 L 226.406376 -142.712927 L 230.727748 -140.636322 L 234.990459 -138.516698 L 239.194508 -136.357968 L 243.339897 -134.16013 L 247.422713 -131.927095 L 251.446869 -129.658864 " transform="matrix(0.998851,0,0,-0.998851,350.892849,369.673721)"/>
</g>
</g>
</g>
</svg>
