<?xml version="1.0" encoding="UTF-8" standalone="no"?>
<svg
   width="4650pt"
   height="663.237pt"
   viewBox="0 0 4649.9999 663.237"
   version="1.2"
   id="svg1398"
   sodipodi:docname="logo-text.svg"
   inkscape:export-filename="/Users/ronny/Repositories/Julia/ManifoldsBase.jl/assets/logo-interface.png"
   inkscape:export-xdpi="102.623"
   inkscape:export-ydpi="102.623"
   inkscape:version="1.1.1 (c3084ef, 2021-09-22)"
   xmlns:inkscape="http://www.inkscape.org/namespaces/inkscape"
   xmlns:sodipodi="http://sodipodi.sourceforge.net/DTD/sodipodi-0.dtd"
   xmlns="http://www.w3.org/2000/svg"
   xmlns:svg="http://www.w3.org/2000/svg">
  <sodipodi:namedview
     id="namedview1400"
     pagecolor="#ffffff"
     bordercolor="#666666"
     borderopacity="1.0"
     inkscape:pageshadow="2"
     inkscape:pageopacity="0.0"
     inkscape:pagecheckerboard="true"
     inkscape:document-units="pt"
     showgrid="false"
     width="6632pt"
     inkscape:zoom="0.45014485"
     inkscape:cx="2111.5425"
     inkscape:cy="337.66908"
     inkscape:window-width="1795"
     inkscape:window-height="992"
     inkscape:window-x="1565"
     inkscape:window-y="0"
     inkscape:window-maximized="0"
     inkscape:current-layer="surface1" />
  <defs
     id="defs1345">
    <rect
       x="80.268684"
       y="247.60847"
       width="789.08197"
       height="302.02792"
       id="rect1975" />
    <clipPath
       id="clip1">
      <path
         d="M 142,0 H 560 V 240 H 142 Z m 0,0"
         id="path1297" />
    </clipPath>
    <clipPath
       id="clip2">
      <path
         d="m -231.24609,513.73047 v -305.5 l 582.14062,-333.90235 582.14063,333.90235 v 305.5 L 350.89453,847.63281 Z m 0,0"
         id="path1300" />
    </clipPath>
    <clipPath
       id="clip3">
      <path
         d="M 189,3 H 513 V 189 H 189 Z m 0,0"
         id="path1303" />
    </clipPath>
    <clipPath
       id="clip4">
      <path
         d="m -231.24609,513.73047 v -305.5 l 582.14062,-333.90235 582.14063,333.90235 v 305.5 L 350.89453,847.63281 Z m 0,0"
         id="path1306" />
    </clipPath>
    <clipPath
       id="clip5">
      <path
         d="M 0.101562,280 H 296 V 662.47656 H 0.101562 Z m 0,0"
         id="path1309" />
    </clipPath>
    <clipPath
       id="clip6">
      <path
         d="m -231.24609,513.73047 v -305.5 l 582.14062,-333.90235 582.14063,333.90235 v 305.5 L 350.89453,847.63281 Z m 0,0"
         id="path1312" />
    </clipPath>
    <clipPath
       id="clip7">
      <path
         d="M 13,336 H 242 V 631 H 13 Z m 0,0"
         id="path1315" />
    </clipPath>
    <clipPath
       id="clip8">
      <path
         d="m -231.24609,513.73047 v -305.5 l 582.14062,-333.90235 582.14063,333.90235 v 305.5 L 350.89453,847.63281 Z m 0,0"
         id="path1318" />
    </clipPath>
    <clipPath
       id="clip9">
      <path
         d="M 406,280 H 701.6875 V 662.47656 H 406 Z m 0,0"
         id="path1321" />
    </clipPath>
    <clipPath
       id="clip10">
      <path
         d="m -231.24609,513.73047 v -305.5 l 582.14062,-333.90235 582.14063,333.90235 v 305.5 L 350.89453,847.63281 Z m 0,0"
         id="path1324" />
    </clipPath>
    <clipPath
       id="clip11">
      <path
         d="M 460,336 H 689 V 631 H 460 Z m 0,0"
         id="path1327" />
    </clipPath>
    <clipPath
       id="clip12">
      <path
         d="m -231.24609,513.73047 v -305.5 l 582.14062,-333.90235 582.14063,333.90235 v 305.5 L 350.89453,847.63281 Z m 0,0"
         id="path1330" />
    </clipPath>
    <clipPath
       id="clip13">
      <path
         d="M 0.101562,0 H 701.6875 V 662.47656 H 0.101562 Z m 0,0"
         id="path1333" />
    </clipPath>
    <clipPath
       id="clip14">
      <path
         d="m -231.24609,513.73047 v -305.5 l 582.14062,-333.90235 582.14063,333.90235 v 305.5 L 350.89453,847.63281 Z m 0,0"
         id="path1336" />
    </clipPath>
    <clipPath
       id="clip15">
      <path
         d="M 0.101562,76 H 701.6875 V 662.47656 H 0.101562 Z m 0,0"
         id="path1339" />
    </clipPath>
    <clipPath
       id="clip16">
      <path
         d="m -231.24609,513.73047 v -305.5 l 582.14062,-333.90235 582.14063,333.90235 v 305.5 L 350.89453,847.63281 Z m 0,0"
         id="path1342" />
    </clipPath>
  </defs>
  <g
     id="surface1">
    <path
       id="path1347"
       style="clip-rule:nonzero;fill:#38974c;fill-opacity:1;fill-rule:nonzero;stroke:none;stroke-width:1.33333"
       d="M 465.65039,-0.00585938 448,0.39648438 430.42773,1.4375 413.00977,3.1191406 395.8125,5.4277344 378.90039,8.359375 362.35352,11.900391 346.22461,16.037109 330.58789,20.75 l -15.07812,5.275391 -14.47266,5.808593 -13.79688,6.328125 -13.06835,6.8125 -12.29102,7.28125 -11.46484,7.707032 -10.58204,8.109375 -9.66796,8.480468 -8.7129,8.8125 -7.71874,9.113282 -6.69336,9.375004 -5.64454,9.60546 -4.57421,9.78516 -3.47852,9.93359 -2.375,10.03516 -1.25977,10.10938 -0.14062,10.13085 0.98437,10.11524 2.09375,10.0625 3.20704,9.96289 4.29687,9.82227 5.38086,9.65234 6.43164,9.4375 7.46875,9.18164 8.46484,8.89062 9.43164,8.56836 10.35938,8.20704 11.24414,7.8125 12.08984,7.38671 12.87891,6.93165 13.625,6.45312 14.30273,5.94336 14.9375,5.40625 15.50586,4.85937 16.00391,4.28125 16.45313,3.6875 16.82421,3.08789 17.13477,2.4629 17.36914,1.83984 17.53711,1.20312 17.64063,0.5625 17.6621,-0.0781 17.61914,-0.72461 17.50586,-1.36523 17.31641,-1.99414 17.05859,-2.61915 16.73829,-3.24023 16.34961,-3.83789 15.88476,-4.42773 15.37109,-4.99415 14.78125,-5.54687 14.14063,-6.07422 13.44141,-6.57226 12.6875,-7.05274 11.88086,-7.49414 11.03124,-7.91602 10.13086,-8.29687 9.19141,-8.65234 8.21875,-8.96875 7.20898,-9.25 6.17188,-9.48829 5.11523,-9.69921 4.02539,-9.86329 2.93165,-9.99609 1.81835,-10.07812 0.69727,-10.11914 -0.41601,-10.13086 -1.54102,-10.09375 -2.65234,-10.01563 -3.75391,-9.90039 -4.84375,-9.74414 -5.91211,-9.54688 -6.95313,-9.312496 -7.96874,-9.042968 -8.95313,-8.734375 -9.90039,-8.390625 L 682.50977,57.994141 670.83789,50.390625 658.34961,43.228516 645.08789,36.53125 631.11914,30.333984 616.49023,24.65625 601.26562,19.521484 585.5,14.947266 569.25977,10.958984 552.61523,7.5683594 535.63086,4.7910156 518.36914,2.640625 500.90625,1.1191406 483.30664,0.234375 Z m 0.5,4.53710938 13.64063,0.1816406 13.58984,0.6835938 13.48828,1.1757812 13.33398,1.6621094 13.11915,2.146484 L 546.18164,13 l 12.54297,3.078125 12.17187,3.53125 11.75977,3.96875 11.30273,4.384766 L 604.75,32.75 l 10.24023,5.171875 9.64454,5.53125 9.01562,5.875 L 642,55.515625 649.64648,62 l 6.91602,6.744141 6.15039,6.984375 5.375,7.193359 4.5625,7.375 3.74023,7.525391 2.9004,7.646484 2.04687,7.73437 1.19336,7.79688 0.32227,7.82227 -0.54102,7.82421 -1.40625,7.78125 -2.25977,7.71875 -3.10937,7.61914 -3.94922,7.49024 -4.76953,7.33203 -5.56836,7.14063 -6.34961,6.92773 -7.09766,6.68164 -7.82812,6.41211 -8.51563,6.10938 -9.17773,5.79101 -9.80273,5.44922 -10.37891,5.07812 -10.92188,4.6875 -11.41796,4.28125 -11.86915,3.85938 -12.27148,3.42187 -12.625,2.96289 -12.92578,2.5 -13.18359,2.0254 -13.375,1.54296 -13.51954,1.05079 -13.60546,0.55859 -13.64454,0.0625 -13.62109,-0.43359 -13.54687,-0.93165 -13.41602,-1.41601 -13.23437,-1.90625 -12.99415,-2.38086 -12.70898,-2.85352 -12.36523,-3.30859 -11.97266,-3.75 -11.53711,-4.17578 -11.04687,-4.58984 -10.52149,-4.98438 -9.94727,-5.35351 -9.33789,-5.70899 -8.6875,-6.03125 -8,-6.33789 -7.28711,-6.61914 -6.5371,-6.86523 -5.76563,-7.09376 -4.96875,-7.2871 -4.15625,-7.45313 -3.32227,-7.59375 -2.4746,-7.69141 -1.61914,-7.77148 -0.75586,-7.8125 0.10546,-7.82813 0.97266,-7.80273 1.83984,-7.75391 2.6875,-7.671871 3.53125,-7.558593 4.35938,-7.416016 5.17187,-7.240234 5.95704,-7.041016 6.73046,-6.806641 7.4629,-6.546875 8.17773,-6.265625 8.85351,-5.958984 9.49415,-5.619141 10.09375,-5.261718 10.65625,-4.884766 11.17773,-4.490234 11.65039,-4.072266 12.07422,-3.640625 12.45703,-3.197266 12.78125,-2.734375 13.05859,-2.2617184 13.28516,-1.7851562 13.45313,-1.296875 13.57421,-0.8085938 z"
       transform="scale(0.75)" />
    <path
       id="path1359"
       style="clip-rule:nonzero;fill:#ca3a30;fill-opacity:1;fill-rule:nonzero;stroke:none;stroke-width:1.33333"
       d="m 112.33789,374.47852 -11.09766,0.26562 -10.718746,1.28711 -10.287109,2.30273 -9.818359,3.3125 -9.3125,4.3125 -8.759766,5.28516 -8.177734,6.24024 -7.566407,7.17773 -6.917968,8.07812 -6.244141,8.94727 -5.546875,9.78711 L 13.0625,442.05273 8.9785156,453.38086 5.6503906,465.41602 3.09375,478.11523 1.3183594,491.41602 0.328125,505.27148 0.125,519.625 l 0.59960938,14.79688 1.37890622,15.17187 2.171875,15.49414 2.9433594,15.75 3.708984,15.94336 4.457032,16.07813 5.1875,16.13476 5.902343,16.13672 6.582032,16.07226 7.246093,15.94336 7.875,15.75 8.478516,15.48829 9.037109,15.17187 9.566407,14.78711 10.0625,14.34961 10.505859,13.84766 10.916015,13.29687 11.27734,12.6875 11.59375,12.02734 11.86915,11.32227 12.08789,10.56836 12.26562,9.77539 12.39063,8.9375 12.46484,8.06836 12.48828,7.16016 12.46484,6.23437 12.39063,5.27148 12.26562,4.29688 12.08789,3.30273 11.86915,2.29102 11.59375,1.27148 11.27734,0.25 10.91602,-0.77148 10.50585,-1.79687 10.0625,-2.8125 9.56641,-3.8125 9.03711,-4.79688 8.47461,-5.77148 7.87891,-6.7129 7.24609,-7.63085 6.58203,-8.51563 5.90234,-9.375 5.1875,-10.18164 4.45704,-10.95898 3.70898,-11.69141 2.94336,-12.37109 2.17187,-13.00977 1.37891,-13.58398 0.59375,-14.11329 -0.19726,-14.57812 -0.99024,-14.99609 -1.77539,-15.33789 -2.55664,-15.63086 L 384.89648,669 l -4.08398,-16.02148 -4.82812,-16.11329 -5.54688,-16.14648 -6.24414,-16.10937 -6.91797,-16.01563 -7.56641,-15.85352 -8.17773,-15.625 -8.75977,-15.33984 -9.3125,-14.98828 -9.81836,-14.57422 -10.2871,-14.10937 -10.71875,-13.57813 -11.09766,-12.99414 -11.44336,-12.36523 -11.74023,-11.68164 -11.98438,-10.95313 -12.18164,-10.17187 -12.33398,-9.36524 -12.43164,-8.50391 -12.48438,-7.62109 -12.48438,-6.70312 -12.43164,-5.75391 -12.33398,-4.78711 -12.18164,-3.80273 -11.98438,-2.79688 -11.74023,-1.78125 z m -8.19727,73.6621 8.8379,0.5879 9.0625,1.375 9.25586,2.1621 9.4121,2.9375 9.5254,3.69727 9.60351,4.44922 9.64063,5.17187 9.64648,5.88477 9.60352,6.57227 9.52734,7.23046 9.40625,7.85938 9.25977,8.45703 9.0625,9.02149 8.83789,9.55273 8.57421,10.03516 8.28125,10.49023 7.94141,10.89648 7.58398,11.25391 7.19336,11.57813 6.76563,11.84375 6.31641,12.07421 5.84375,12.24414 5.34375,12.36915 4.82421,12.44335 4.28125,12.47461 3.72852,12.44141 3.15625,12.375 2.56836,12.24609 1.97851,12.07227 1.36915,11.84961 0.76562,11.57812 0.15234,11.25977 -0.45898,10.90039 -1.06836,10.49609 -1.67578,10.04688 -2.27149,9.55078 -2.86523,9.03125 -3.44141,8.46484 -4.01171,7.86915 -4.55665,7.23437 -5.08398,6.58398 -5.59375,5.89063 -6.08203,5.1875 -6.54688,4.45312 -6.98437,3.70704 -7.39063,2.94336 -7.76562,2.17187 -8.11524,1.38477 -8.43164,0.5996 -8.71484,-0.19335 -8.95312,-0.98438 -9.16602,-1.76562 -9.33789,-2.55079 -9.47461,-3.31836 -9.56836,-4.07226 -9.625,-4.8125 -9.65039,-5.53711 -9.625,-6.22852 -9.57227,-6.90625 -9.46875,-7.54687 -9.33984,-8.16211 -9.16601,-8.74414 -8.95899,-9.29297 -8.707031,-9.79687 L 91.384766,750.95898 83.271484,740.25977 75.5,729.17773 68.115234,717.75586 61.130859,706.04102 54.583984,694.07227 48.5,681.91211 42.90625,669.59961 37.818359,657.18164 33.265625,644.71875 29.255859,632.25586 25.8125,619.83789 22.947266,607.52539 20.671875,595.35938 19,583.39648 17.927734,571.67188 17.46875,560.24414 17.625,549.16211 l 0.759766,-10.70313 1.375,-10.27734 1.974609,-9.80078 2.572266,-9.30274 3.15625,-8.75 3.724609,-8.16601 4.287109,-7.55859 4.822266,-6.91016 5.34375,-6.24024 5.84375,-5.54101 6.318359,-4.82422 6.765625,-4.08203 7.191407,-3.32813 7.583984,-2.5625 7.943359,-1.77734 8.275391,-0.99414 z"
       transform="scale(0.75)" />
    <path
       id="path1371"
       style="clip-rule:nonzero;fill:#9157a1;fill-opacity:1;fill-rule:nonzero;stroke:none;stroke-width:1.33333"
       d="m 823.375,374.47852 -11.44336,0.76562 -11.73437,1.78125 -11.98438,2.79688 -12.1875,3.80273 -12.33203,4.78711 -12.43359,5.75391 -12.48438,6.70312 -12.48437,7.62109 -12.43164,8.50391 -12.33399,9.36524 -12.18164,10.17187 -11.98437,10.95313 -11.74024,11.68164 -11.44141,12.36523 -11.09961,12.99414 -10.71874,13.57813 -10.28711,14.10937 -9.81641,14.57422 -9.30859,14.98828 -8.76563,15.33984 -8.17578,15.625 -7.56836,15.85352 -6.91602,16.01563 -6.24609,16.10937 -5.54687,16.14648 -4.82227,16.11329 -4.08789,16.02148 -3.32813,15.85352 -2.55859,15.63086 -1.77539,15.33789 -0.99023,14.99609 -0.19727,14.57812 0.59375,14.11329 1.38477,13.58398 2.16796,13.00977 2.94141,12.37109 3.70898,11.69141 4.45899,10.95898 5.19141,10.18164 5.89648,9.375 6.58398,8.51563 7.25,7.63085 7.875,6.7129 8.47266,5.77148 9.03711,4.79688 9.57227,3.8125 10.05859,2.8125 10.50391,1.79687 10.91796,0.77148 11.2754,-0.25 11.59374,-1.27148 11.86915,-2.29102 12.08984,-3.30273 12.26562,-4.29688 12.39063,-5.27148 12.46289,-6.23437 12.49023,-7.16016 12.46875,-8.06836 12.38477,-8.9375 12.26562,-9.77539 12.0879,-10.56836 11.87109,-11.32227 11.59375,-12.02734 11.28125,-12.6875 10.91016,-13.29687 10.51171,-13.84766 10.05664,-14.34961 9.56836,-14.78711 9.03516,-15.17187 8.48047,-15.48829 7.875,-15.75 7.24414,-15.94336 6.58398,-16.07226 5.90039,-16.13672 5.1875,-16.13476 4.45899,-16.07813 3.70703,-15.94336 2.94336,-15.75 2.17188,-15.49414 1.38476,-15.17187 0.59375,-14.79688 -0.19727,-14.35352 -0.99023,-13.85546 -1.78125,-13.30079 -2.55664,-12.69921 -3.32812,-12.03516 -4.08399,-11.32813 -4.82812,-10.57812 -5.54688,-9.78711 -6.24414,-8.94727 -6.91602,-8.07812 -7.56835,-7.17773 -8.17774,-6.24024 -8.75976,-5.28516 -9.30665,-4.3125 -9.82421,-3.3125 -10.28516,-2.30273 -10.71484,-1.28711 z m 8.19727,73.6621 8.57812,0.20313 8.27734,0.99414 7.94727,1.77734 7.58398,2.5625 7.1875,3.32813 6.76563,4.08203 6.31641,4.82422 5.84375,5.54101 5.34375,6.24024 4.82421,6.91016 4.28516,7.55859 3.72461,8.16601 3.15625,8.75 2.57227,9.30274 1.9746,9.80078 1.375,10.27734 0.75977,10.70313 0.15625,11.08203 -0.45703,11.42774 -1.07422,11.7246 -1.67187,11.9629 -2.2754,12.16601 -2.86523,12.3125 -3.44141,12.41797 -4.00586,12.46289 -4.55664,12.46289 -5.08984,12.41797 -5.59375,12.3125 -6.08203,12.16016 -6.54688,11.96875 -6.98046,11.71484 -7.39063,11.42187 -7.76953,11.08204 -8.11524,10.69921 -8.43164,10.26954 -8.70898,9.79687 -8.95898,9.29297 -9.16602,8.74414 -9.33398,8.16211 -9.47266,7.54687 -9.57422,6.90625 -9.625,6.22852 -9.64453,5.53711 -9.63086,4.8125 -9.56836,4.07226 -9.47266,3.31836 -9.33984,2.55079 -9.16601,1.76562 -8.95313,0.98438 -8.71289,0.19335 -8.42774,-0.5996 -8.11914,-1.38477 -7.76562,-2.17187 -7.39063,-2.94336 -6.98437,-3.70704 -6.54297,-4.45312 -6.08203,-5.1875 -5.59961,-5.89063 -5.08398,-6.58398 -4.55665,-7.23437 -4.00976,-7.86915 -3.44336,-8.46484 -2.86523,-9.03125 -2.26954,-9.55078 -1.67773,-10.04688 -1.06836,-10.49609 -0.45703,-10.90039 0.15039,-11.25977 0.76562,-11.57812 1.36915,-11.84961 1.98046,-12.07227 2.56641,-12.24609 3.15625,-12.375 3.73047,-12.44141 4.28125,-12.47461 4.82227,-12.44335 5.34374,-12.36915 5.84376,-12.24414 6.31835,-12.07421 6.76563,-11.84375 7.19141,-11.57813 7.58398,-11.25391 7.94727,-10.89648 8.27734,-10.49023 8.57226,-10.03516 8.8379,-9.55273 9.06836,-9.02149 9.25585,-8.45703 9.41016,-7.85938 9.52734,-7.23046 9.59766,-6.57227 9.64649,-5.88477 9.64062,-5.17187 9.60352,-4.44922 9.52734,-3.69727 9.41016,-2.9375 9.25586,-2.1621 9.06835,-1.375 z"
       transform="scale(0.75)" />
    <g
       clip-path="url(#clip13)"
       clip-rule="nonzero"
       id="g1389">
      <g
         clip-path="url(#clip14)"
         clip-rule="nonzero"
         id="g1387">
        <path
           style="fill:none;stroke:#000000;stroke-width:29.8883;stroke-linecap:round;stroke-linejoin:miter;stroke-miterlimit:10;stroke-dasharray:53.799, 41.8434;stroke-opacity:0.5"
           d="m 0.00168386,305.8533 -3.99286986,-2.32689 -3.985048,-2.39729 -3.988958,-2.46768 -3.981137,-2.54198 -3.981138,-2.61238 -3.973315,-2.68277 -3.969405,-2.75316 -3.961584,-2.81965 -3.953762,-2.89004 -3.94203,-2.95652 -3.934208,-3.02301 -3.926387,-3.08557 -3.910744,-3.15597 -3.899011,-3.21854 -3.883369,-3.28112 -3.867725,-3.34368 -3.855994,-3.41017 -3.836439,-3.46492 -3.816886,-3.52749 -3.801243,-3.58616 -3.78169,-3.64872 -3.758225,-3.69956 -3.738671,-3.76214 -3.715206,-3.81297 -3.691742,-3.86773 -3.668277,-3.92248 -3.6409,-3.97722 -3.61744,-4.02807 -3.58615,-4.0789 -3.56269,-4.12584 -3.5314,-4.17667 -3.50012,-4.22361 -3.46883,-4.26662 -3.44145,-4.31746 -3.40626,-4.36048 -3.37106,-4.39959 -3.33978,-4.44651 -3.30458,-4.48562 -3.26938,-4.52473 -3.23027,-4.56384 -3.19508,-4.60295 -3.15597,-4.63814 -3.11295,-4.67334 -3.07776,-4.70462 -3.03474,-4.73983 -2.99562,-4.7711 -2.95262,-4.8024 -2.90959,-4.83368 -2.86266,-4.85714 -2.82356,-4.88843 -2.77663,-4.91189 -2.7297,-4.93536 -2.68277,-4.95882 -2.63584,-4.982293 -2.58891,-4.99793 -2.54199,-5.021395 -2.49114,-5.040949 -2.4403,-5.056592 -2.38947,-5.068324 -2.33862,-5.087878 -2.2917,-5.095699 -2.23303,-5.111342 -2.18611,-5.119164 -2.12744,-5.130896 -2.07661,-5.138717 -2.02185,-5.142628 -1.96711,-5.15045 -1.91235,-5.150449 -1.8576,-5.158271 -1.79895,-5.154361 -1.74419,-5.158271 -1.68553,-5.15436 -1.63078,-5.154361 -1.56821,-5.150449 -1.51346,-5.142628 -1.45088,-5.138718 -1.39614,-5.130896 -1.33356,-5.119163 -1.2749,-5.111342 -1.21624,-5.09961 -1.15367,-5.083967 -1.09501,-5.072235 -1.03244,-5.056592 -0.96986,-5.040949 -0.91121,-5.021395 -0.84863,-5.001841 -0.78606,-4.982288 -0.72348,-4.962734 -0.66092,-4.935358 -0.59834,-4.911895 -0.53578,-4.888429 -0.4732,-4.861055 -0.41062,-4.833676 -0.34806,-4.8024 -0.28548,-4.77502 -0.22292,-4.73982 -0.15643,-4.70853 -0.0938,-4.67725 -0.0313,-4.63814"
           transform="matrix(0.998851,0,0,-0.998851,350.89285,369.67372)"
           id="path1383" />
        <path
           style="fill:none;stroke:#000000;stroke-width:29.8883;stroke-linecap:round;stroke-linejoin:miter;stroke-miterlimit:10;stroke-dasharray:53.799, 41.8434;stroke-opacity:0.5"
           d="m 0.00168386,305.8533 3.98895914,-2.32689 3.988958,-2.39729 3.985048,-2.46768 3.981137,-2.54198 3.981138,-2.61238 3.973315,-2.68277 3.969405,-2.75316 3.961584,-2.81965 3.953762,-2.89004 3.94203,-2.95652 3.934208,-3.02301 3.926387,-3.08557 3.910744,-3.15597 3.899011,-3.21854 3.883369,-3.28112 3.867725,-3.34368 3.855994,-3.41017 3.836439,-3.46492 3.816886,-3.52749 3.801243,-3.58616 3.78169,-3.64872 3.758224,-3.69956 3.738672,-3.76214 3.715206,-3.81297 3.691742,-3.86773 3.66828,-3.92248 3.6409,-3.97722 3.61744,-4.02807 3.58615,-4.0789 3.56269,-4.12584 3.5314,-4.17667 3.50012,-4.22361 3.47274,-4.26662 3.43754,-4.31746 3.40626,-4.36048 3.37497,-4.39959 3.33586,-4.44651 3.30458,-4.48562 3.26938,-4.52473 3.23028,-4.56384 3.19508,-4.60295 3.15597,-4.63814 3.11686,-4.67334 3.07384,-4.70462 3.03865,-4.73983 2.99172,-4.7711 2.95261,-4.8024 2.9096,-4.83368 2.86657,-4.85714 2.81965,-4.88843 2.77663,-4.91189 2.72969,-4.93536 2.68278,-4.95882 2.63584,-4.982293 2.58891,-4.99793 2.54198,-5.021395 2.49115,-5.040949 2.4403,-5.056592 2.38946,-5.068324 2.34254,-5.087878 2.28779,-5.095699 2.23694,-5.111342 2.1822,-5.119164 2.13135,-5.130896 2.07661,-5.138717 2.02185,-5.142628 1.9671,-5.15045 1.91236,-5.150449 1.85369,-5.158271 1.79894,-5.154361 1.7442,-5.158271 1.68553,-5.15436 1.63078,-5.154361 1.5682,-5.150449 1.51346,-5.142628 1.4548,-5.138718 1.39222,-5.130896 1.33357,-5.119163 1.2749,-5.111342 1.21624,-5.09961 1.15367,-5.083967 1.09501,-5.072235 1.03244,-5.056592 0.96986,-5.040949 0.9112,-5.021395 0.84863,-5.001841 0.78606,-4.982288 0.72349,-4.962734 0.66092,-4.935358 0.59834,-4.911895 0.53577,-4.888429 0.4732,-4.861055 0.41063,-4.833676 0.34806,-4.8024 0.28548,-4.77502 0.22291,-4.73982 0.15643,-4.70853 0.0978,-4.67725 0.0313,-4.63814"
           transform="matrix(0.998851,0,0,-0.998851,350.89285,369.67372)"
           id="path1385" />
      </g>
    </g>
    <g
       clip-path="url(#clip15)"
       clip-rule="nonzero"
       id="g1395">
      <g
         clip-path="url(#clip16)"
         clip-rule="nonzero"
         id="g1393">
        <path
           style="fill:none;stroke:#000000;stroke-width:29.8883;stroke-linecap:round;stroke-linejoin:miter;stroke-miterlimit:10;stroke-dasharray:53.799, 41.8434;stroke-opacity:0.5"
           d="m -251.4435,-129.65886 4.02024,-2.26823 4.08282,-2.23304 4.14539,-2.19784 4.20405,-2.15873 4.26271,-2.11962 4.32137,-2.07661 4.38003,-2.0414 4.43479,-2.00231 4.48953,-1.95928 4.54429,-1.92017 4.59512,-1.87716 4.64987,-1.83414 4.69681,-1.79112 4.74373,-1.75201 4.79457,-1.70509 4.8415,-1.66206 4.88843,-1.61905 4.92754,-1.57212 4.97447,-1.5291 5.01357,-1.48217 5.05659,-1.43525 5.0957,-1.39222 5.1309,-1.3453 5.17,-1.29836 5.20129,-1.24753 5.2404,-1.20451 5.26777,-1.15367 5.30297,-1.10674 5.33034,-1.05981 5.36163,-1.00897 5.389,-0.96205 5.412474,-0.9112 5.439845,-0.86036 5.459398,-0.81344 5.482863,-0.76259 5.502417,-0.71567 5.52197,-0.66091 5.541524,-0.61399 5.557167,-0.55924 5.57281,-0.51231 5.584542,-0.46146 5.596274,-0.41063 5.604096,-0.35588 5.619739,-0.30895 5.62365,-0.25811 5.631471,-0.20336 5.635382,-0.15643 5.639292,-0.10167 5.639293,-0.0508 H 2.82133 l 5.639293,0.0508 5.639292,0.10167 5.639293,0.15643 5.62756,0.20336 5.62365,0.25811 5.619739,0.30895 5.604096,0.35588 5.600185,0.41063 5.584542,0.46146 5.568899,0.51231 5.557167,0.55924 5.541524,0.61399 5.52197,0.66091 5.502417,0.71567 5.482863,0.76259 5.463309,0.81344 5.435934,0.86036 5.412467,0.9112 5.38901,0.96205 5.36163,1.00897 5.33034,1.05981 5.30297,1.10674 5.26777,1.15367 5.2404,1.20451 5.2052,1.24753 5.16609,1.29836 5.13481,1.3453 5.09179,1.39222 5.05659,1.43525 5.01357,1.48217 4.97447,1.5291 4.93144,1.57212 4.88452,1.61905 4.8415,1.66206 4.79458,1.70509 4.74373,1.75201 4.70071,1.79112 4.64597,1.83414 4.59512,1.87716 4.54428,1.92017 4.48954,1.95928 4.43478,2.00231 4.38004,2.0414 4.32137,2.07661 4.26271,2.11962 4.20405,2.15873 4.14539,2.19784 4.08281,2.23304 4.02416,2.26823"
           transform="matrix(0.998851,0,0,-0.998851,350.89285,369.67372)"
           id="path1391" />
      </g>
    </g>
    <text
       xml:space="preserve"
       transform="scale(0.75)"
       id="text1973"
       style="font-style:normal;font-weight:normal;font-size:40px;line-height:1.25;font-family:sans-serif;white-space:pre;shape-inside:url(#rect1975);fill:#000000;fill-opacity:1;stroke:none" />
    <text
       xml:space="preserve"
       style="font-style:normal;font-weight:normal;font-size:500px;line-height:1.25;font-family:sans-serif;fill:#000000;fill-opacity:1;stroke:none;stroke-width:0.75"
       x="825.70801"
       y="479.89871"
       id="text2091"><tspan
         sodipodi:role="line"
         id="tspan2089"
         style="font-style:normal;font-variant:normal;font-weight:normal;font-stretch:normal;font-size:500px;font-family:'Tamil MN';-inkscape-font-specification:'Tamil MN';stroke-width:0.75"
         x="825.70801"
         y="479.89871">ManifoldsBase.jl</tspan></text>
  </g>
</svg>
